PathFileType	4	(X/Y/Z)	Patient4_TMGait_0pt4_02_left_06.trc.trc
DataRate	CameraRate	NumFrames	NumMarkers	Units	OrigDataRate	OrigDataStartFrame	OrigNumFrames
74.866310160428	74.866310160428	4	33	mm	74.866310160428	124	       141
Frame#	Time	Sacral			L.Shoulder			Chest			R.Shoulder			Neck			R.ASIS			L.ASIS			R.Thigh.Superior			R.Thigh.Lateral			R.Thigh.Inferior			R.Patella			L.Thigh.Superior			L.Thigh.Lateral			L.Thigh.Inferior			L.Patella			L.Shank.Superior			L.Shank.Lateral			L.Shank.Inferior			R.Shank.Superior			R.Shank.Lateral			R.Shank.Inferior			R.Heel			R.Midfoot.Superior			R.Midfoot.Lateral			R.Toe			L.Heel			L.Midfoot.Lateral			L.Midfoot.Superior			L.Toe			L.Elbow			L.Wrist			R.Elbow			R.Wrist			
		X1	Y1	Z1	X2	Y2	Z2	X3	Y3	Z3	X4	Y4	Z4	X5	Y5	Z5	X6	Y6	Z6	X7	Y7	Z7	X8	Y8	Z8	X9	Y9	Z9	X10	Y10	Z10	X11	Y11	Z11	X12	Y12	Z12	X13	Y13	Z13	X14	Y14	Z14	X15	Y15	Z15	X16	Y16	Z16	X17	Y17	Z17	X18	Y18	Z18	X19	Y19	Z19	X20	Y20	Z20	X21	Y21	Z21	X22	Y22	Z22	X23	Y23	Z23	X24	Y24	Z24	X25	Y25	Z25	X26	Y26	Z26	X27	Y27	Z27	X28	Y28	Z28	X29	Y29	Z29	X30	Y30	Z30	X31	Y31	Z31	X32	Y32	Z32	X33	Y33	Z33	

124	9.702928571429	875.859003991244	1003.175587773548	529.672745160884	1018.550916298754	1435.173738889230	334.441475395510	1148.519620848378	1365.081993640338	473.230715696168	1095.804828525168	1432.660402830269	660.698367313087	1027.506707004312	1491.061998606653	493.355223557682	1114.933654778628	937.737661573837	619.079641843771	1070.523100568268	958.811483216841	346.381734452740	1107.942546127509	725.459556770150	597.572943526501	1001.514955717785	633.072428212066	661.910040891210	1059.944997902567	566.023093534116	583.365440236921	1041.066703768433	482.869722932992	589.906907337878	1143.810917697533	766.129724761833	371.905597284332	1084.029881183939	635.893210941780	302.698310756623	1189.493179475454	576.317903769831	357.200901482768	1211.474536207939	509.717060223827	355.905947087445	1191.761384294839	437.117139276567	347.156244052603	1116.459096216908	310.857834153072	301.380539731605	1199.842341553843	207.020394869258	351.970881801662	1002.267246403911	400.456361483459	595.674889253142	918.334093321088	304.462003326627	654.926105617685	953.834360173465	205.930130317595	591.436314584049	810.991618557827	44.343363177109	551.987070508368	980.005455438491	95.175737895288	594.118689723539	890.795972630770	36.291122157233	629.895948418004	1099.270441153717	43.074225922857	627.452037762973	1105.314284998030	40.938093512237	396.562767234028	1174.103571202371	38.512375269104	312.030057499044	1256.094428013142	103.792358353991	331.071876393378	1383.465754368742	56.596772774366	295.518741728286	885.770959831744	1105.341841517758	244.547636076761	888.391694122258	842.258446314155	245.133061038677	1254.134289099948	1135.809063066575	779.914299664847	1489.262884237027	1201.656690918276	711.555289549346	
125	9.716285714286	876.479787221690	1002.433914023218	526.414167701036	1020.176851056292	1433.906098829148	330.815826951415	1149.343422853462	1364.399913428770	470.618077919811	1095.406296223725	1432.518097803177	657.582763006252	1028.133258502146	1490.374158667198	489.604573766783	1115.220909759348	937.187137674263	617.199924692390	1072.131892023469	957.760816353349	344.504998517296	1108.569599979376	724.687132991927	595.900662155289	1001.905675364230	632.357717778029	659.880784937684	1060.563919954970	565.082439379194	581.568114471583	1041.268713369746	481.338929999841	588.004126187414	1145.111370238498	764.327655719682	371.544464266351	1084.731729501345	634.756355995407	302.365970856113	1189.171067733834	574.812774806329	358.480914184342	1209.825020407228	507.328986494347	357.718992833114	1189.648661382837	434.560690523068	348.297568981710	1113.017486668375	309.275341524727	301.995442383007	1194.152445176570	204.317605937909	353.839671806142	1001.360727481310	399.215887216680	594.126458501126	916.184936367439	304.525121066903	653.792923960973	950.213640299570	205.318562080594	590.647983127552	805.658190825342	44.692905109917	552.046520334250	974.756761027424	95.124488078898	593.987950960573	885.471463641644	36.377837817745	629.903700163121	1093.981075125239	42.762833053728	627.486454699495	1096.523118202196	39.942969571124	397.902463421102	1165.561384792306	37.286568459582	313.480732775769	1248.613858555587	100.868832176206	333.634309775155	1375.662792397422	51.778622851095	298.073879028431	889.564703340201	1103.110490063114	240.336500440475	895.026557503454	839.985853974938	240.622293327617	1252.018150058487	1135.016733248615	778.464400072157	1487.447473901522	1200.535844225520	710.713782560133	
126	9.729642857143	877.052553231337	1001.816137946039	523.092969713519	1021.920859412036	1432.736126514282	327.088521941866	1150.220631127020	1363.819876409160	467.957724072308	1095.048682251483	1432.588385025517	654.370905187013	1028.822545594419	1489.862401144660	485.681826654802	1115.492255284149	936.760270147524	615.164302519232	1073.591665755723	956.936825629124	342.520934132537	1109.405492792338	724.072999704666	593.922915765519	1002.710914299004	631.671894763481	657.635455626350	1061.646370829170	564.225078709630	579.536588878380	1041.999177249709	479.755626477513	585.940509691630	1146.404054633476	762.916421192318	371.023400035584	1085.583883397882	634.096731105468	301.693284404149	1189.016906147873	573.774743865140	359.350726403929	1208.326346375679	505.461847161709	359.005874276691	1187.825620448115	432.553765744726	348.903503866183	1110.157294437446	308.139703745900	301.958286938013	1189.141976528546	202.252759364090	355.097996202249	1000.834534130603	397.983875166440	592.449478128940	914.341334231259	304.719589548272	652.546969273862	946.793766519214	204.799670012041	589.808314741838	800.370677226518	45.313623231393	552.119273471737	969.630092909920	95.129329260278	593.890286923432	880.197112224395	36.579649683799	629.911505395823	1088.757620718959	42.356205448974	627.527986929254	1088.859137229445	39.157157682111	398.665650772733	1158.107466318998	36.507002583126	314.330099707489	1241.816192709700	98.872259099503	335.445668589183	1368.700453029720	48.561078766712	299.865555212092	894.065358832682	1100.759939185777	235.820472211137	902.477973805672	837.620921246435	235.676152223224	1249.237314991004	1134.070834013153	777.186325239458	1485.399375393158	1198.156785054259	710.267110614757	
127	9.743000000000	877.571125542929	1001.371188203673	519.740667585498	1023.724491988641	1431.727444728803	323.311139112611	1151.129215517269	1363.378555843525	465.256227341806	1094.764350728682	1432.894179634553	651.084636623211	1029.555090648881	1489.566481419243	481.637523280921	1115.741641492169	936.503557961645	612.957998219057	1074.861891905544	956.384551576490	340.387336728302	1110.403142475433	723.671592319937	591.636973808431	1003.906910612678	631.072604078808	655.210739314817	1063.170182672966	563.502923039826	577.311714826503	1043.260278085184	478.170554603060	583.813583888693	1147.678273297027	762.003511410485	370.229108485863	1086.595518915186	633.912747379981	300.660211652236	1189.073285248965	573.205951157195	359.659260765472	1207.062199848567	504.133153847631	359.649280607869	1186.339292822252	431.088447041455	348.971865916737	1107.868654432338	307.449927985764	301.329198323876	1184.784491755117	200.804654045201	355.796743880193	1000.684627699240	396.823837149570	590.715830578155	912.791368770733	305.109191528152	651.228545218429	943.586690483846	204.440176332920	588.970229909079	795.145412051605	46.291794549533	552.220380287417	964.652880995618	95.203580501811	593.840344513671	874.983295236745	36.937345108962	629.924403144168	1083.604439922463	41.856040237339	627.578293786152	1082.234898539772	38.604486906362	398.961395777599	1151.642834174880	36.103186426086	314.683244207247	1235.675998320801	97.695581837081	336.557468606493	1362.515736333457	46.723688877589	300.943344258508	899.270223286102	1098.362425640489	231.030115917232	910.775994485572	835.245097065955	230.348596691098	1245.769596997303	1132.993403334994	776.043408441630	1483.075868414720	1194.479724991435	710.193836754027	
